<svg xmlns="http://www.w3.org/2000/svg" version="1.1" xmlns:xlink="http://www.w3.org/1999/xlink" xmlns:svgjs="http://svgjs.com/svgjs" width="1440" height="560" preserveAspectRatio="none" viewBox="0 0 1440 560">
    <g mask="url(&quot;#SvgjsMask1003&quot;)" fill="none">
        <path d="M -547.2234917777971,124 C -451.22,197.6 -259.22,465 -67.22349177779712,492 C 124.78,519 220.78,286.2 412.7765082222029,259 C 604.78,231.8 700.78,371.8 892.7765082222029,356 C 1084.78,340.2 1263.33,161 1372.776508222203,180 C 1482.22,199 1426.56,396.8 1440,451" stroke="rgba(255, 31, 88, 0.5)" stroke-width="2"></path>
        <path d="M -862.1434590585652,316 C -766.14,301.6 -574.14,227.8 -382.1434590585652,244 C -190.14,260.2 -94.14,409.4 97.85654094143479,397 C 289.86,384.6 385.86,176 577.8565409414348,182 C 769.86,188 885.43,447.8 1057.8565409414348,427 C 1230.29,406.2 1363.57,147.8 1440,78" stroke="rgba(255, 31, 88, 0.5)" stroke-width="2"></path>
        <path d="M -109.99228216864543,497 C -13.99,409.2 178.01,73 370.00771783135457,58 C 562.01,43 658.01,402.4 850.0077178313545,422 C 1042.01,441.6 1138.01,157.4 1330.0077178313545,156 C 1522.01,154.6 1788.01,390.4 1810.0077178313545,415 C 1832.01,439.6 1514,306.2 1440,279" stroke="rgba(255, 31, 88, 0.5)" stroke-width="2"></path>
        <path d="M -162.38425246019602,257 C -66.38,295.2 125.62,484.8 317.615747539804,448 C 509.62,411.2 605.62,70.8 797.615747539804,73 C 989.62,75.2 1085.62,421.2 1277.615747539804,459 C 1469.62,496.8 1725.14,262.2 1757.615747539804,262 C 1790.09,261.8 1503.52,418.8 1440,458" stroke="rgba(255, 31, 88, 0.5)" stroke-width="2"></path>
    </g>
    <defs>
        <mask id="SvgjsMask1003">
            <rect width="1440" height="560" fill="#ffffff"></rect>
        </mask>
    </defs>
</svg>
